<svg width="1153" height="772" viewBox="0 0 1153 772" fill="none" xmlns="http://www.w3.org/2000/svg">
<g filter="url(#filter0_d)">
<path d="M1075.14 496.637C1072.96 492.442 1068.88 489.681 1064.59 488.408C1060.25 487.299 1055.76 487 1051.32 487.524C1044.15 488.066 1037.05 489.312 1030.09 491.245C1025.78 492.452 1021.31 494.07 1018.4 497.715C1018.32 497.823 1018.23 497.952 1018.14 498.06C1013.68 499.3 1009.26 501.209 1004.95 502.762C1000.63 504.288 996.223 505.559 991.766 506.569C997.598 503.043 1003.28 499.311 1008.09 494.329C1010.36 491.984 1012.4 489.396 1014.17 486.607C1017.47 487.611 1020.92 487.857 1024.31 487.33C1031.18 486.079 1036.73 480.859 1041.89 475.769L1058.49 459.528C1061.14 456.94 1063.83 454.287 1065.59 450.901C1067.98 446.188 1068.19 440.58 1068.25 435.199C1068.33 427.801 1068.25 420.403 1068.05 413.016L1073.3 417.329C1072.5 408.218 1074.1 399.049 1077.91 390.843C1079.73 386.928 1082.13 383.035 1082.18 378.646C1082.26 371.874 1076.78 366.546 1071.17 363.548C1065.56 360.55 1059.25 358.63 1054.66 354.026C1047.82 347.178 1046.55 336.253 1043.17 326.871C1041.17 321.734 1038.79 316.769 1036.07 312.021L1029.5 299.835C1026.19 293.413 1022.51 287.221 1018.46 281.297C1011.62 271.709 1003.01 263.805 994.464 255.986L949.998 215.254C939.186 205.343 928.334 195.422 916.639 186.751C892.916 169.162 866.15 157.083 839.556 145.124C832.862 142.104 825.894 139.041 818.652 139.408C813.197 139.784 808.028 142.136 804.006 146.073C800.195 144.842 796.467 143.336 792.849 141.565L792.565 141.425C792.646 140.788 792.737 140.163 792.798 139.527C792.89 138.686 792.94 137.844 793.001 136.992C795.004 136.664 796.943 135.99 798.742 134.997C799.655 134.539 800.461 133.872 801.105 133.045C801.922 131.605 802.34 129.949 802.312 128.268C803.123 116.998 803.935 105.621 803.063 94.4054C802.19 83.1897 799.543 71.8339 793.934 62.3006C792.2 59.3457 790.029 56.4663 787.017 55.183C782.96 53.4575 778.264 55.0644 773.933 54.2879C766.438 52.9399 761.762 45.1429 756.336 39.3949C742.613 24.8469 719.143 22.6577 703.3 34.4341C697.296 38.9096 692.488 44.9811 687.133 50.3301C681.777 55.6791 675.499 60.5212 668.267 61.5673C666.934 61.6273 665.629 61.9953 664.444 62.6457C662.963 63.6379 662.293 65.5467 661.725 67.3153C659.697 73.4192 657.749 79.6848 657.131 86.0691C657.06 85.6809 656.999 85.2927 656.938 84.9044C656.662 87.2689 656.605 89.6564 656.766 92.0328C656.969 95.0615 657.792 98.0062 659.18 100.66C660.334 103.183 662.303 105.181 664.728 106.29C666.443 106.935 668.254 107.245 670.073 107.206H670.874C670.58 108.037 670.296 108.867 670.032 109.708C667.774 116.835 666.626 124.306 666.634 131.827C666.634 169.572 694.963 200.156 729.934 200.156C734.143 200.134 738.34 199.664 742.461 198.754C743.83 199.218 745.199 199.692 746.518 200.199C749.218 201.148 751.866 202.257 754.449 203.52C755.544 204.07 759.977 206.82 765.332 210.368L764.967 211.177C759.742 216.366 755.909 222.938 753.862 230.221C751.814 237.504 751.624 245.235 753.313 252.621C757.188 268.657 769.896 282.407 768.618 298.918C768.436 301.269 767.969 303.652 768.344 305.982C768.862 309.217 770.921 311.848 772.98 314.242C774.765 316.335 776.621 318.362 778.507 320.346C778.355 330.883 777.493 341.408 776.56 351.912C776.479 352.829 776.459 353.756 776.448 354.694C776.503 359.235 778.054 363.613 780.83 367.064C783.771 370.871 784.948 376.575 784.39 381.666C783.589 388.956 780.211 395.567 777.949 402.479C767.746 433.57 780.282 468.63 773.223 500.735C771.489 508.64 768.568 516.329 768.152 524.46C767.918 529.539 768.669 534.867 766.833 539.558C765.241 543.634 761.924 546.579 758.79 549.436C754.361 553.47 750.047 557.64 745.848 561.946C739.502 558.257 732.951 554.98 726.232 552.132C725.137 551.663 724.02 551.253 722.885 550.903C714.954 543.009 704.953 537.962 695.561 532.16C687.772 527.361 680.347 521.969 672.882 516.577C665.782 511.4 658.53 506.181 652.526 499.527C649.483 496.162 646.775 492.452 643.499 489.379C640.62 486.83 637.569 484.509 634.371 482.434C619.98 472.522 606.261 461.549 593.314 449.596C583.445 440.494 575.371 428.771 564.823 420.608C558.362 415.604 550.847 411.042 542.935 411.98C540.417 412.295 537.973 413.096 535.724 414.342C533.627 413.397 531.387 412.863 529.111 412.767C522.68 412.552 516.777 416.262 511.26 419.831C478.804 440.803 445.84 460.84 412.37 479.943C405.615 483.803 398.819 487.632 392.368 492.053C379.782 500.71 368.63 511.521 359.364 524.05C357.66 526.347 355.51 528.957 352.802 528.612C352.061 528.491 351.348 528.22 350.702 527.814C346.534 525.409 343.978 520.761 341.574 516.35C339.83 513.115 337.943 509.74 335.387 507.281C334.84 505.75 334.111 504.3 333.217 502.967C336.817 493.52 339.921 483.847 342.801 474.108C344.303 468.997 345.753 463.853 347.67 458.892C352.396 446.619 359.932 435.501 362.6 422.516C363.239 419.378 363.614 416.154 364.111 412.983C393.271 406.879 415.28 379.185 415.28 345.927C415.28 308.182 386.942 277.598 351.98 277.598C317.019 277.598 288.691 308.182 288.691 345.927C288.659 357.415 291.346 368.728 296.504 378.823C301.661 388.919 309.124 397.473 318.206 403.698C318.206 403.827 318.206 403.957 318.206 404.075C318.145 406.244 317.945 408.406 317.607 410.546C316.441 417.771 313.55 424.565 310.639 431.155C308.712 435.565 306.785 439.998 304.787 444.398C303.828 444.193 302.898 443.86 302.018 443.406C300.304 442.392 299.553 440.17 298.904 438.208C296.032 429.214 292.515 420.467 288.386 412.045C286.776 408.465 284.73 405.126 282.301 402.113C278.021 397.13 272.158 394.175 266.488 391.188C265.474 390.671 264.531 390.11 263.557 389.614C262.715 388.948 261.834 388.339 260.92 387.791C256.204 384.955 250.97 382.917 247.035 378.948C244.083 375.972 242.055 372.1 239.296 368.94C234.702 363.688 228.362 360.69 222.206 357.832C219.001 356.344 215.633 354.824 212.134 355.029C211.641 355.054 211.15 355.112 210.664 355.201C209.822 355.354 208.989 355.555 208.168 355.805C207.37 355.354 206.615 354.819 205.917 354.209C202.154 351.125 200.693 345.83 199.466 340.901C197.438 332.662 195.298 324.132 196.555 315.698C196.774 314.243 197.072 312.803 197.448 311.385C197.762 310.835 198.066 310.306 198.34 309.713C206.415 307.132 213.793 302.537 219.86 296.31C225.926 290.084 230.505 282.406 233.215 273.916C235.926 265.426 236.688 256.371 235.44 247.504C234.192 238.638 230.969 230.217 226.04 222.943C225.522 222.188 225.025 221.455 224.447 220.721L225.056 220.366C230.665 216.72 231.943 208.007 229.346 201.515C226.75 195.022 221.232 190.439 215.644 186.837C214.832 186.309 214.011 185.813 213.179 185.317L212.469 184.907C211.84 184.54 211.221 184.184 210.593 183.828L209.852 183.429C209.112 183.03 208.371 182.653 207.631 182.286L207.296 182.114C206.373 181.672 205.45 181.24 204.517 180.83C203.614 180.431 202.712 180.065 201.799 179.752L201.424 179.601C200.562 179.267 199.689 178.954 198.817 178.652L198.624 178.587C192.245 176.382 185.594 175.19 178.887 175.05C172.321 175.092 165.778 175.862 159.362 177.347C153.116 178.55 147 180.418 141.106 182.923C131.364 187.312 122.776 194.16 116.084 202.873C114.673 202.987 113.275 203.233 111.905 203.607C106.418 205.084 101.478 208.341 96.965 212.029C93.1846 214.984 89.8353 218.516 87.0252 222.512C83.7158 227.631 81.4336 233.42 80.321 239.518C76.4769 258.639 81.2034 278.342 84.6823 297.559C88.1612 316.777 90.1694 337.72 81.6395 354.964C78.4243 361.434 73.8601 367.053 70.4827 373.405C67.1052 379.757 64.7622 387.424 66.7096 394.467C69.0728 403.018 76.8522 408.4 80.9092 416.165C85.656 425.213 84.3476 437.366 78.1403 445.282C77.8665 445.627 77.5926 445.972 77.2985 446.36C77.0043 446.749 76.5885 447.158 76.2031 447.525C82.6031 449.919 89.7333 447.342 95.474 443.503C100.065 440.619 103.959 436.634 106.844 431.866C114.096 419.206 110.84 402.835 113.396 388.201C116.753 369.037 130.304 351.944 128.437 332.543C127.18 319.527 119.187 308.645 112.909 297.451C108.736 289.938 105.238 282.024 102.462 273.812C102.351 273.467 102.239 273.111 102.117 272.734C100.282 267.18 98.8718 261.292 99.8151 255.479C100.137 253.596 100.668 251.761 101.397 250.011C101.397 250.216 101.397 250.432 101.397 250.637C101.521 256.259 102.696 261.798 104.856 266.932C111.195 280.951 126.45 287.422 136.136 298.789C136.541 299.263 136.927 299.748 137.312 300.244C137.424 300.374 137.525 300.514 137.627 300.654L138.448 301.733L138.793 302.24C139.047 302.617 139.3 302.994 139.533 303.383L139.848 303.868C140.172 304.418 140.497 304.946 140.801 305.54C143.266 302.639 145.812 299.587 146.806 295.834C146.897 295.51 146.958 295.176 147.019 294.842C147.1 294.928 147.171 295.025 147.252 295.122C147.445 296.276 147.597 297.43 147.739 298.595C147.739 300.259 147.905 301.918 148.236 303.544C149.007 313.897 148.388 324.531 147.739 334.916C147.394 340.47 148.753 348.72 145.426 352.861L145.325 352.98C145.13 353.221 144.916 353.445 144.686 353.648V353.648C144.118 354.274 143.54 354.888 143.002 355.535C131.845 368.908 126.774 387.888 127.038 406.07C127.302 426.765 133.519 446.813 140.568 466.063C143.03 473.091 145.93 479.936 149.25 486.553C150.964 490.126 153.23 493.367 155.954 496.141C158.804 498.826 162.273 500.594 165.691 502.32C166.543 502.751 167.405 503.172 168.257 503.614L170.438 504.692L187.041 513.083C190.084 517.839 193.026 522.724 195.997 527.62C196.423 528.31 196.839 529.022 197.275 529.712C200.521 535.104 203.787 540.496 207.114 545.737L235.097 589.802C237.126 593.037 239.245 596.272 242.095 598.667C242.906 599.344 243.784 599.926 244.712 600.403C245.184 600.644 245.668 600.857 246.163 601.039C245.548 602.02 245.286 603.202 245.422 604.371C245.796 605.517 246.508 606.504 247.451 607.186C253.78 612.751 260.809 618.617 262.797 627.169C264.206 633.262 262.797 639.787 264.064 645.912C266.387 656.955 276.661 663.652 286.378 667.901C308.154 677.413 332.344 681.069 355.48 676.647C378.615 672.226 400.594 659.468 415.575 639.981C420.179 633.963 424.105 627.396 428.476 621.184C431.519 616.806 434.866 612.632 438.324 608.61C442.056 606.795 445.654 604.682 449.086 602.29C456.399 597.124 462.697 590.492 469.371 584.345C474.351 579.729 479.564 575.373 484.139 570.326C488.246 565.538 492.083 560.497 495.63 555.228C503.744 543.796 512.125 532.591 520.774 521.613C525.399 515.736 530.298 509.75 536.758 506.515L537.053 506.386C537.823 511.217 541.424 515.315 543.95 519.489C554.396 536.743 565.33 554.505 581.477 565.505C590.322 571.523 600.322 575.211 610.302 578.575C635.659 587.095 661.421 593.781 687.204 600.478C688.056 598.753 688.887 597.157 689.82 595.604C690.22 596.053 690.592 596.528 690.936 597.027C691.048 597.2 691.139 597.383 691.251 597.556C691.064 597.595 690.881 597.649 690.703 597.717C689.047 598.537 687.746 599.994 687.062 601.794C684.283 607.715 684.019 614.584 683.887 621.206C683.796 627.676 683.887 634.147 683.887 640.617C683.739 643.033 684.085 645.454 684.901 647.713C686.869 652.027 691.869 653.634 696.342 654.184C704.111 655.101 711.941 654.324 719.67 653.213C720.116 655.152 720.845 657.004 721.83 658.702C726.171 666.251 733.667 671.234 741.467 674.156C749.266 677.079 757.532 678.244 765.636 679.958C780.029 682.999 794.756 687.863 809.067 684.434C814.777 683.064 820.224 680.411 825.934 679.247C839.008 676.615 852.558 681.943 865.724 679.807C872.083 678.729 878.098 676.033 883.859 672.938C886.763 671.583 889.396 669.65 891.618 667.244C893.727 664.72 894.995 661.14 894.123 657.872C893.626 655.996 892.49 654.4 891.729 652.631C890.709 649.802 890.131 646.815 890.015 643.788C888.956 632.334 887.133 620.975 884.558 609.796C884.487 609.483 884.406 609.16 884.325 608.836C894.275 604.641 903.19 598.052 911.994 591.495L930.93 577.411C937.016 572.849 943.254 568.266 950.09 565.074C960.577 560.178 972.19 558.776 983.621 558.786C988.297 558.786 992.983 559.034 997.638 559.487C997.045 560.176 996.598 560.992 996.33 561.881C995.397 564.966 996.878 568.352 999.079 570.606C1001.28 572.86 1004.15 574.132 1006.74 575.696C1013.88 579.974 1019.83 586.193 1023.98 593.717C1026.58 598.451 1028.46 604.199 1026.82 609.408C1024.79 615.943 1017.56 620.451 1017.97 627.331C1018.22 631.386 1021.29 634.74 1024.79 636.239C1028.29 637.738 1032.17 637.716 1035.95 637.598C1042.12 637.393 1048.48 636.886 1054.01 633.899C1057.73 631.882 1060.89 628.841 1063.98 625.832C1066.8 623.082 1069.68 620.224 1071.28 616.514C1072.78 613.02 1073.02 609.063 1073.09 605.223C1073.39 587.149 1070.46 568.827 1073.84 551.119C1074.85 545.727 1076.48 540.453 1077.34 535.018C1078.7 526.39 1078.18 517.677 1077.66 509.006C1077.41 504.736 1077.11 500.336 1075.14 496.637Z" fill="url(#paint0_linear)"/>
<path opacity="0.06" d="M860.845 246.668C856.859 249.526 855.469 255.048 854.962 260.138C852.802 281.782 861.2 303.21 860.642 324.962C860.196 342.271 854.131 358.781 848.147 374.882C837.943 402.35 832.628 432.179 830.569 461.631C828.51 491.083 825.498 521.753 810.629 546.665C807.252 552.305 803.316 557.546 800.01 563.219C796.541 569.15 793.792 575.513 790.729 581.681C781.704 599.9 770.07 616.515 756.244 630.933C752.187 635.139 747.887 639.215 742.714 641.642C739.381 643.18 735.791 643.993 732.158 644.034C728.524 644.074 724.92 643.342 721.557 641.879C714.619 638.827 708.777 631.947 708.493 623.966C708.239 616.827 712.246 610.389 716.262 604.673C729.875 585.309 745.529 567.666 762.918 552.089C766.073 549.264 769.399 546.341 771.032 542.308C772.868 537.66 772.118 532.386 772.351 527.35C772.726 519.316 775.667 511.691 777.422 503.862C784.522 472.059 771.905 437.334 782.169 406.523C784.451 399.675 787.839 393.129 788.64 385.915C789.208 380.868 788.031 375.227 785.06 371.442C782.277 368.041 780.72 363.699 780.668 359.191C780.668 358.264 780.668 357.347 780.769 356.441C782.007 342.325 783.234 328.143 782.564 313.984C781.895 299.824 779.248 285.589 773.101 273.003C769.917 266.479 765.799 260.375 763.831 253.333C760.667 241.934 763.588 229.608 768.304 218.823C771.986 210.39 776.895 202.356 783.751 196.575C796.49 185.845 815.558 184.605 829.504 193.48C839.789 200.016 846.828 211.005 852.538 222.21C856.636 230.395 860.906 237.329 860.845 246.668Z" fill="black"/>
<path d="M827.04 160.718C825.092 166.304 823.155 171.89 821.228 177.476C819.95 181.143 818.682 184.842 817.364 188.509C811.278 205.408 804.472 222.037 793.823 236.024C795.415 233.932 780.434 223.407 769.389 216.224C764.003 212.698 759.541 209.98 758.445 209.441C755.842 208.19 753.177 207.089 750.463 206.141C746.254 204.631 741.994 203.326 737.785 201.698C728.048 197.956 734.854 192.337 739.022 186.298C752.664 166.52 755.25 139.494 770.738 121.323C776.418 132.797 785.403 142.037 796.379 147.69C796.592 147.809 796.815 147.917 797.038 148.014C806.237 152.586 816.4 154.56 825.914 158.388C826.431 158.593 827.03 158.884 827.202 159.467C827.266 159.892 827.21 160.327 827.04 160.718Z" fill="#A1616A"/>
<path d="M800.557 560.188C796.151 566.9 793.409 574.685 792.585 582.823C791.76 590.961 792.88 599.188 795.841 606.744C796.59 608.855 797.755 610.771 799.259 612.362C801.174 613.953 803.404 615.06 805.781 615.598C825.924 621.691 847.426 620.494 868.056 616.676C875.045 615.532 881.913 613.672 888.565 611.122C898.778 606.97 907.897 600.338 916.903 593.716L935.951 579.762C942.118 575.243 948.335 570.703 955.222 567.532C965.77 562.69 977.455 561.299 988.946 561.31C998.817 561.322 1008.67 562.322 1018.36 564.297C1024.82 565.623 1032.56 566.993 1037.1 561.978C1039.7 559.142 1040.47 554.99 1040.98 551.075C1042.98 535.844 1042.95 520.387 1040.87 505.167C1040.82 503.886 1040.38 502.657 1039.62 501.662C1038.9 501.016 1038.03 500.594 1037.1 500.443C1028.13 498.286 1019.12 502.762 1010.4 505.835C992.273 512.241 972.809 513.007 954.37 518.28C935.018 523.813 916.842 534.284 896.841 536.409C887.307 537.423 877.732 536.538 868.178 536.765C859.314 536.97 851.047 540.226 842.365 540.615C825.63 541.402 811.075 544.508 800.557 560.188Z" fill="#A1616A"/>
<path opacity="0.06" d="M800.557 560.188C796.151 566.9 793.409 574.685 792.585 582.823C791.76 590.961 792.88 599.188 795.841 606.744C796.59 608.855 797.755 610.771 799.259 612.362C801.174 613.953 803.404 615.06 805.781 615.598C825.924 621.691 847.426 620.494 868.056 616.676C875.045 615.532 881.913 613.672 888.565 611.122C898.778 606.97 907.897 600.338 916.903 593.716L935.951 579.762C942.118 575.243 948.335 570.703 955.222 567.532C965.77 562.69 977.455 561.299 988.946 561.31C998.817 561.322 1008.67 562.322 1018.36 564.297C1024.82 565.623 1032.56 566.993 1037.1 561.978C1039.7 559.142 1040.47 554.99 1040.98 551.075C1042.98 535.844 1042.95 520.387 1040.87 505.167C1040.82 503.886 1040.38 502.657 1039.62 501.662C1038.9 501.016 1038.03 500.594 1037.1 500.443C1028.13 498.286 1019.12 502.762 1010.4 505.835C992.273 512.241 972.809 513.007 954.37 518.28C935.018 523.813 916.842 534.284 896.841 536.409C887.307 537.423 877.732 536.538 868.178 536.765C859.314 536.97 851.047 540.226 842.365 540.615C825.63 541.402 811.075 544.508 800.557 560.188Z" fill="black"/>
<path d="M816.928 536.429C816.451 538.812 816.025 541.336 816.694 543.665C817.525 545.956 818.927 547.962 820.751 549.467C837.994 565.881 862.63 569.278 885.664 571.941C891.902 572.664 898.251 573.387 904.428 572.19C910.057 571.111 915.311 568.469 920.494 565.859C931.651 560.241 942.868 554.557 952.433 546.297C961.815 538.208 969.34 527.855 979.057 520.231C990.102 511.604 1003.68 506.664 1013.54 496.506C1020.67 489.194 1025.41 479.647 1027.06 469.265C1028.18 462.179 1027.81 454.943 1027.06 447.804C1026.26 439.597 1024.97 431.25 1021.3 423.981C1017.05 415.57 1009.91 409.218 1002.37 403.998C986.431 392.977 967.657 386.139 948.619 386.312C922.248 386.56 897.906 402.877 878.98 421.199C858.961 440.605 842.759 464.038 831.31 490.143C824.846 504.927 820.02 520.46 816.928 536.429Z" fill="#052555"/>
<path d="M860.845 246.668C856.859 249.526 855.469 255.048 854.962 260.138C852.802 281.782 861.2 303.21 860.642 324.962C860.196 342.271 854.131 358.781 848.147 374.882C837.943 402.35 832.628 432.179 830.569 461.631C828.51 491.083 825.498 521.753 810.629 546.665C807.252 552.305 803.316 557.546 800.01 563.219C796.541 569.15 793.792 575.513 790.729 581.681C781.704 599.9 770.07 616.515 756.244 630.933C752.187 635.139 747.887 639.215 742.714 641.642C739.381 643.18 735.791 643.993 732.158 644.034C728.524 644.074 724.92 643.342 721.557 641.879C714.619 638.827 708.777 631.947 708.493 623.966C708.239 616.827 712.246 610.389 716.262 604.673C729.875 585.309 745.529 567.666 762.918 552.089C766.073 549.264 769.399 546.341 771.032 542.308C772.868 537.66 772.118 532.386 772.351 527.35C772.726 519.316 775.667 511.691 777.422 503.862C784.522 472.059 771.905 437.334 782.169 406.523C784.451 399.675 787.839 393.129 788.64 385.915C789.208 380.868 788.031 375.227 785.06 371.442C782.277 368.041 780.72 363.699 780.668 359.191C780.668 358.264 780.668 357.347 780.769 356.441C782.007 342.325 783.234 328.143 782.564 313.984C781.895 299.824 779.248 285.589 773.101 273.003C769.917 266.479 765.799 260.375 763.831 253.333C760.667 241.934 763.588 229.608 768.304 218.823C771.986 210.39 776.895 202.356 783.751 196.575C796.49 185.845 815.558 184.605 829.504 193.48C839.789 200.016 846.828 211.005 852.538 222.21C856.636 230.395 860.906 237.329 860.845 246.668Z" fill="#A1616A"/>
<path d="M804.807 319.117C826.009 319.117 843.197 290.442 843.197 255.069C843.197 219.697 826.009 191.021 804.807 191.021C783.605 191.021 766.417 219.697 766.417 255.069C766.417 290.442 783.605 319.117 804.807 319.117Z" fill="#A1616A"/>
<path d="M706.901 589.758C708.034 591.458 708.804 593.401 709.154 595.45C709.505 597.5 709.428 599.606 708.929 601.621C712.548 604.384 716.946 605.746 721.394 605.482C725.809 605.226 730.149 604.165 734.225 602.344C737.77 600.969 741.126 599.098 744.205 596.779C749.499 592.616 753.333 586.663 756.376 580.495C758.09 577.087 759.551 572.676 757.39 569.614C756.541 568.574 755.507 567.724 754.348 567.112C746.533 562.371 738.396 558.258 730.005 554.807C727.702 553.677 725.199 553.082 722.662 553.06C719.548 553.243 716.719 555.055 714.244 557.082C708.682 561.681 704.196 567.587 701.14 574.337C700.186 576.494 697.306 581.616 698.736 583.838C699.385 584.862 701.779 585.218 702.793 585.865C704.406 586.84 705.806 588.167 706.901 589.758V589.758Z" fill="#A1616A"/>
<path opacity="0.03" d="M706.901 589.758C708.034 591.458 708.804 593.401 709.154 595.45C709.505 597.5 709.428 599.606 708.929 601.621C712.548 604.384 716.946 605.746 721.394 605.482C725.809 605.226 730.149 604.165 734.225 602.344C737.77 600.969 741.126 599.098 744.205 596.779C749.499 592.616 753.333 586.663 756.376 580.495C758.09 577.087 759.551 572.676 757.39 569.614C756.541 568.574 755.507 567.724 754.348 567.112C746.533 562.371 738.396 558.258 730.005 554.807C727.702 553.677 725.199 553.082 722.662 553.06C719.548 553.243 716.719 555.055 714.244 557.082C708.682 561.681 704.196 567.587 701.14 574.337C700.186 576.494 697.306 581.616 698.736 583.838C699.385 584.862 701.779 585.218 702.793 585.865C704.406 586.84 705.806 588.167 706.901 589.758V589.758Z" fill="black"/>
<path d="M748.901 564.771C766.062 568.158 781.844 576.979 798.711 581.735C805.537 583.655 812.566 584.97 819.088 587.796C825.61 590.621 831.756 595.453 834.566 602.333C835.753 605.636 836.541 609.085 836.908 612.599C837.639 617.571 838.237 623.125 835.458 627.201C832.527 631.515 826.989 632.464 822.029 633.1C804.199 635.354 786.368 637.619 768.476 639.215C764.854 639.449 761.247 639.906 757.674 640.585C754.733 641.21 751.863 642.159 748.942 642.893C745.158 643.831 741.314 644.424 737.481 645.049C727.673 646.548 717.753 648.047 707.905 646.904C703.412 646.376 698.381 644.834 696.403 640.52C695.582 638.284 695.236 635.883 695.389 633.489C695.338 627.083 695.287 620.688 695.389 614.293C695.48 607.725 695.784 600.909 698.584 595.054C699.278 593.261 700.587 591.815 702.245 591.009C703.266 590.699 704.333 590.596 705.389 590.707C710.664 590.902 716.12 591.139 720.837 593.641C724.579 595.614 727.622 598.904 731.436 600.694C738.657 604.102 747.37 601.653 754.682 604.856C756.386 599.27 756.001 593.619 754.733 587.893C753.465 582.166 751.69 576.548 751.153 570.703C751.132 569.418 750.898 568.148 750.463 566.95C749.915 565.753 750.098 564.588 748.901 564.771Z" fill="#464353"/>
<path opacity="0.06" d="M748.901 564.771C766.062 568.158 781.844 576.979 798.711 581.735C805.537 583.655 812.566 584.97 819.088 587.796C825.61 590.621 831.756 595.453 834.566 602.333C835.753 605.636 836.541 609.085 836.908 612.599C837.639 617.571 838.237 623.125 835.458 627.201C832.527 631.515 826.989 632.464 822.029 633.1C804.199 635.354 786.368 637.619 768.476 639.215C764.854 639.449 761.247 639.906 757.674 640.585C754.733 641.21 751.863 642.159 748.942 642.893C745.158 643.831 741.314 644.424 737.481 645.049C727.673 646.548 717.753 648.047 707.905 646.904C703.412 646.376 698.381 644.834 696.403 640.52C695.582 638.284 695.236 635.883 695.389 633.489C695.338 627.083 695.287 620.688 695.389 614.293C695.48 607.725 695.784 600.909 698.584 595.054C699.278 593.261 700.587 591.815 702.245 591.009C703.266 590.699 704.333 590.596 705.389 590.707C710.664 590.902 716.12 591.139 720.837 593.641C724.579 595.614 727.622 598.904 731.436 600.694C738.657 604.102 747.37 601.653 754.682 604.856C756.386 599.27 756.001 593.619 754.733 587.893C753.465 582.166 751.69 576.548 751.153 570.703C751.132 569.418 750.898 568.148 750.463 566.95C749.915 565.753 750.098 564.588 748.901 564.771Z" fill="black"/>
<path d="M175.631 380.889C172.172 379.724 168.836 382.981 166.898 386.281C158.845 399.74 159.504 417.707 165.945 432.114C167.477 435.768 169.591 439.114 172.193 442.003C175.682 445.659 180.175 448 184.364 450.631C195.987 457.932 205.948 467.875 213.534 479.748C218.494 487.524 222.399 496.076 228.028 503.312C241.883 521.128 264.653 529.194 278.092 547.312C281.307 551.625 284.025 556.629 288.315 559.768C290.866 561.632 293.838 562.739 296.925 562.973C300.012 563.208 303.103 562.562 305.876 561.102C308.65 559.642 311.007 557.422 312.704 554.669C314.401 551.917 315.376 548.733 315.528 545.446C320.751 537.282 325.021 528.267 329.089 519.381C335.106 505.817 340.191 491.808 344.303 477.462C345.814 472.394 347.274 467.293 349.201 462.364C353.958 450.2 361.535 439.189 364.212 426.334C365.288 421.179 365.551 415.819 367.113 410.815C368.512 406.324 370.905 402.256 374.091 398.953C384.64 388.05 390.32 372.165 398.707 359.331C402.115 354.144 405.655 348.968 407.907 343.101C410.158 337.234 411.021 330.516 408.921 324.584C406.822 318.653 401.334 313.865 395.391 314.199C392.731 314.493 390.15 315.335 387.794 316.68C379.603 320.813 372.09 326.318 365.541 332.985C362.678 335.915 359.969 339.012 357.427 342.26C345.033 358.005 335.336 377.115 334.485 397.626C334.201 404.658 334.728 412.455 330.529 417.901C318.946 432.945 315.224 453.629 305.345 469.999C300.77 477.548 295.527 485.367 287.707 488.807C286.552 489.398 285.274 489.665 283.995 489.584C280.871 489.206 279.075 485.712 277.757 482.671C272.604 470.81 266.641 459.366 259.916 448.431C257.259 444.117 254.328 439.696 250.078 437.161C247.177 435.447 243.81 434.681 241.081 432.675C237.278 429.882 235.29 425.126 233.312 420.672C226.902 406.287 218.786 392.834 209.162 380.641C204.761 375.066 198.959 369.307 192.163 370.137C185.693 370.946 181.737 378.182 175.631 380.889Z" fill="#FBBEBE"/>
<path opacity="0.03" d="M175.631 380.889C172.172 379.724 168.836 382.981 166.898 386.281C158.845 399.74 159.504 417.707 165.945 432.114C167.477 435.768 169.591 439.114 172.193 442.003C175.682 445.659 180.175 448 184.364 450.631C195.987 457.932 205.948 467.875 213.534 479.748C218.494 487.524 222.399 496.076 228.028 503.312C241.883 521.128 264.653 529.194 278.092 547.312C281.307 551.625 284.025 556.629 288.315 559.768C290.866 561.632 293.838 562.739 296.925 562.973C300.012 563.208 303.103 562.562 305.876 561.102C308.65 559.642 311.007 557.422 312.704 554.669C314.401 551.917 315.376 548.733 315.528 545.446C320.751 537.282 325.021 528.267 329.089 519.381C335.106 505.817 340.191 491.808 344.303 477.462C345.814 472.394 347.274 467.293 349.201 462.364C353.958 450.2 361.535 439.189 364.212 426.334C365.288 421.179 365.551 415.819 367.113 410.815C368.512 406.324 370.905 402.256 374.091 398.953C384.64 388.05 390.32 372.165 398.707 359.331C402.115 354.144 405.655 348.968 407.907 343.101C410.158 337.234 411.021 330.516 408.921 324.584C406.822 318.653 401.334 313.865 395.391 314.199C392.731 314.493 390.15 315.335 387.794 316.68C379.603 320.813 372.09 326.318 365.541 332.985C362.678 335.915 359.969 339.012 357.427 342.26C345.033 358.005 335.336 377.115 334.485 397.626C334.201 404.658 334.728 412.455 330.529 417.901C318.946 432.945 315.224 453.629 305.345 469.999C300.77 477.548 295.527 485.367 287.707 488.807C286.552 489.398 285.274 489.665 283.995 489.584C280.871 489.206 279.075 485.712 277.757 482.671C272.604 470.81 266.641 459.366 259.916 448.431C257.259 444.117 254.328 439.696 250.078 437.161C247.177 435.447 243.81 434.681 241.081 432.675C237.278 429.882 235.29 425.126 233.312 420.672C226.902 406.287 218.786 392.834 209.162 380.641C204.761 375.066 198.959 369.307 192.163 370.137C185.693 370.946 181.737 378.182 175.631 380.889Z" fill="black"/>
<path d="M174.921 329.362C189.687 329.362 201.657 317.875 201.657 303.706C201.657 289.537 189.687 278.05 174.921 278.05C160.155 278.05 148.185 289.537 148.185 303.706C148.185 317.875 160.155 329.362 174.921 329.362Z" fill="#A1616A"/>
<path d="M199.994 308.667C205.309 308.667 209.619 304.085 209.619 298.433C209.619 292.78 205.309 288.198 199.994 288.198C194.678 288.198 190.368 292.78 190.368 298.433C190.368 304.085 194.678 308.667 199.994 308.667Z" fill="#FBBEBE"/>
<path d="M178.43 303.706C198.77 303.706 215.258 299.018 215.258 293.235C215.258 287.452 198.77 282.763 178.43 282.763C158.091 282.763 141.603 287.452 141.603 293.235C141.603 299.018 158.091 303.706 178.43 303.706Z" fill="#A1616A"/>
<path d="M145.589 291.002C146.485 294.022 147.189 297.103 147.698 300.223C144.606 296.885 141.927 293.142 139.726 289.083C139.133 288.383 138.656 287.58 138.316 286.71C135.03 278.579 132.789 270.351 132.789 261.443C132.788 251.114 135.503 240.992 140.628 232.218C145.752 223.444 153.082 216.368 161.79 211.789C170.497 207.211 180.235 205.313 189.903 206.308C199.572 207.304 208.786 211.155 216.505 217.425C224.224 223.695 230.14 232.135 233.586 241.791C237.032 251.448 237.869 261.937 236.004 272.073C234.139 282.209 229.646 291.589 223.032 299.153C216.417 306.717 207.946 312.164 198.574 314.879C200.166 309.422 202.347 304.094 202.631 298.433C202.802 296.544 202.544 294.64 201.88 292.879C200.99 291.006 199.676 289.398 198.056 288.198C192.255 283.486 184.79 281.426 177.487 281.555C170.176 281.878 162.993 283.71 156.34 286.947C154.24 287.907 151.725 289.201 149.24 290.086C148.055 290.522 146.832 290.829 145.589 291.002Z" fill="#A1616A"/>
<path d="M277.696 412.196C274.359 417.879 267.229 419.615 260.961 419.109C249.276 418.192 238.647 411.56 229.62 403.579C220.593 395.599 212.702 386.324 203.472 378.646C186.301 364.335 166.959 358.587 145.112 358.253C149.382 354.489 147.81 345.56 148.155 339.693C148.905 327.831 149.615 315.655 148.155 303.965C148.003 302.703 147.83 301.463 147.627 300.223C147.972 300.611 148.337 300.989 148.713 301.377C155.209 308.006 163.21 312.734 171.935 315.1C180.66 317.466 189.813 317.39 198.503 314.879C197.944 316.757 197.507 318.674 197.194 320.616C195.937 328.952 198.046 337.407 200.125 345.571C201.363 350.456 202.833 355.697 206.617 358.749C209.071 360.733 212.165 361.51 215.076 362.556C220.878 364.659 226.234 367.957 230.837 372.262C234.042 375.249 236.923 378.732 240.361 381.331C243.631 383.531 247.076 385.422 250.656 386.982C259.442 391.294 267.744 396.644 275.404 402.932C276.849 403.891 277.974 405.31 278.619 406.987C278.808 407.876 278.824 408.797 278.665 409.693C278.507 410.589 278.177 411.441 277.696 412.196Z" fill="#A1616A"/>
<path d="M337.608 516.684C336.909 521.602 332.669 525.441 329.677 529.259C321.543 539.698 313.297 550.17 304.199 559.724C294.462 569.937 283.772 579.039 273.091 588.141L259.237 599.928C257.527 601.59 255.524 602.873 253.344 603.703C250.79 604.38 248.09 604.039 245.757 602.743C244.828 602.27 243.947 601.695 243.13 601.028C240.26 598.656 238.15 595.42 236.091 592.239C226.719 577.695 217.337 563.147 207.945 548.595C204.598 543.397 201.312 538.059 198.046 532.721C197.61 532.031 197.194 531.329 196.758 530.639C193.776 525.786 190.804 520.933 187.751 516.242L171.057 507.928L168.866 506.849L166.28 505.566C162.841 503.851 159.352 502.104 156.492 499.451C153.753 496.714 151.472 493.501 149.747 489.95C146.406 483.383 143.486 476.585 141.004 469.6C133.904 450.545 127.657 430.68 127.393 410.168C127.16 392.126 132.17 373.362 143.449 360.119C144.99 358.296 146.647 356.589 148.408 355.007C150.579 353.076 152.82 351.944 155.61 352.365C158.399 352.785 161.046 353.217 163.724 353.702C171.107 355.054 178.434 356.707 185.703 358.663C192.255 360.442 199.04 362.47 205.663 361.057C206.728 360.83 207.783 360.507 208.838 360.216C209.7 359.978 210.552 359.752 211.434 359.601C211.924 359.511 212.419 359.453 212.915 359.428C216.435 359.234 219.812 360.733 223.058 362.211C229.255 365.036 235.635 368.013 240.3 373.211C243.079 376.338 245.118 380.177 248.08 383.121C252.035 387.058 257.309 389.074 262.056 391.889C262.973 392.43 263.857 393.031 264.703 393.69C266.575 395.182 268.277 396.901 269.775 398.813V398.813C275.921 406.523 279.572 416.93 286.358 424.598C291.788 430.723 296.508 437.519 300.416 444.84C301.054 446.058 301.673 447.288 302.282 448.539C303.296 450.62 304.239 452.734 305.112 454.869C305.335 455.419 305.558 455.948 305.761 456.519C307.037 459.75 308.151 463.051 309.098 466.408C311.4 474.55 312.931 483.34 318.043 489.875C321.614 494.415 326.563 497.424 330.732 501.338C333.416 503.756 335.529 506.811 336.898 510.257C337.651 512.299 337.896 514.513 337.608 516.684Z" fill="#A1616A"/>
<path opacity="0.06" d="M309.371 451.914C308.208 453.474 307.015 455.013 305.791 456.53C305.588 456.81 305.365 457.08 305.142 457.349C294.466 470.629 282.244 482.41 268.771 492.409C260.433 498.599 251.64 504.088 242.866 509.567L226.638 519.672C219.853 523.91 212.976 528.18 205.45 530.618C203.036 531.383 200.511 531.998 198.046 532.721C197.61 532.03 197.194 531.329 196.758 530.639C193.776 525.786 190.804 520.933 187.751 516.242L171.057 507.928C180.277 501.731 188.456 493.938 195.257 484.871C205.4 471.574 213.199 456.411 220.887 441.346C222.25 438.913 223.311 436.303 224.042 433.581C225.056 429.062 224.204 424.317 222.956 419.874C218.39 403.944 208.787 390.179 195.774 380.911C186.646 374.44 176.26 370.504 165.935 366.708C158.723 364.055 150.822 361.488 143.489 362.577C145.028 360.756 146.686 359.051 148.449 357.476C150.619 355.535 152.861 354.403 155.65 354.823C158.439 355.244 161.087 355.675 163.764 356.171C169.19 357.94 174.526 360.054 179.83 362.232C183.32 363.592 186.71 365.225 189.973 367.118C193.22 369.226 196.34 371.549 199.314 374.073C208.109 381.201 217.368 387.656 227.024 393.388C238.18 399.934 249.895 405.251 261.6 410.643C262.841 411.321 264.211 411.689 265.606 411.721C266.305 411.72 266.983 411.471 267.534 411.014C268.085 410.557 268.478 409.918 268.649 409.198C268.695 408.412 268.526 407.629 268.162 406.944C266.133 402.533 261.529 400.311 257.36 398.165C240.057 389.258 224.843 376.435 209.791 363.71C209.426 363.402 209.105 363.038 208.838 362.631L211.434 362.017C228.279 374.881 246.069 386.284 264.632 396.116C265.613 396.648 266.597 397.166 267.584 397.669C268.294 398.047 268.994 398.413 269.714 398.748C274.714 401.358 279.714 404.14 283.477 408.454C285.904 411.429 287.95 414.732 289.563 418.278C293.708 426.606 297.248 435.258 300.152 444.16C300.207 444.351 300.271 444.538 300.344 444.721C300.713 446.081 301.349 447.342 302.211 448.42C302.514 448.782 302.875 449.084 303.276 449.315C305.183 450.512 307.799 450.383 309.371 451.914Z" fill="black"/>
<path d="M211.475 359.601C228.317 372.465 246.108 383.865 264.673 393.69L267.624 395.254C273.304 398.209 279.217 401.142 283.528 406.038C285.953 409.019 287.999 412.326 289.614 415.873C293.762 424.198 297.299 432.851 300.192 441.755C300.842 443.729 301.602 445.897 303.326 446.91C305.051 447.924 307.789 447.849 309.321 449.38C307.941 451.213 306.542 453.025 305.091 454.772C294.418 468.057 282.196 479.843 268.72 489.842C260.383 496.033 251.589 501.522 242.816 507L226.587 517.105C219.802 521.333 212.925 525.603 205.4 528.04C202.57 528.957 199.578 529.647 196.707 530.531C193.725 525.679 190.754 520.826 187.701 516.135L168.815 506.731C178.958 500.627 187.802 491.945 195.186 482.294C205.329 469.007 213.128 453.845 220.816 438.779C222.178 436.346 223.238 433.736 223.971 431.014C224.985 426.496 224.133 421.74 222.885 417.297C218.316 401.417 208.742 387.696 195.774 378.441C186.646 371.971 176.26 368.045 165.935 364.238C158.723 361.596 150.822 359.019 143.489 360.119C145.031 358.296 146.688 356.589 148.449 355.007C150.619 353.076 152.861 351.944 155.65 352.365C158.439 352.785 161.087 353.217 163.764 353.702C169.191 355.481 174.526 357.595 179.83 359.774C183.321 361.129 186.712 362.762 189.973 364.659C193.22 366.767 196.34 369.09 199.314 371.615C208.123 378.726 217.396 385.163 227.064 390.875C238.221 397.432 249.936 402.792 261.64 408.13C262.881 408.809 264.251 409.178 265.647 409.209C266.346 409.211 267.027 408.964 267.578 408.506C268.13 408.049 268.521 407.407 268.689 406.685C268.735 405.903 268.566 405.124 268.203 404.442C266.174 400.031 261.569 397.799 257.401 395.664C240.097 386.756 224.884 373.922 209.832 361.154C209.463 360.849 209.142 360.485 208.879 360.075L211.475 359.601Z" fill="#06BC65"/>
<path d="M353.583 418.149C388.744 418.149 417.248 387.842 417.248 350.456C417.248 313.07 388.744 282.763 353.583 282.763C318.422 282.763 289.918 313.07 289.918 350.456C289.918 387.842 318.422 418.149 353.583 418.149Z" fill="#3F3D56"/>
<path d="M416.883 619.868C428.801 615.889 440.901 611.834 451.368 604.555C458.721 599.443 465.06 592.865 471.734 586.782C476.755 582.21 481.988 577.896 486.593 572.849C490.718 568.126 494.579 563.149 498.156 557.945C506.297 546.614 514.705 535.499 523.38 524.6C528.036 518.787 532.955 512.867 539.456 509.632C551.009 503.862 564.569 507.755 576.761 511.713C595.018 517.644 613.183 523.932 630.263 532.958C639.98 538.102 649.392 543.839 659.2 548.768C677.132 557.773 696.17 563.952 715.136 570.099C716.546 570.737 718.111 570.873 719.599 570.487C720.663 569.969 721.577 569.157 722.246 568.136C724.72 564.888 726.701 561.25 728.119 557.352C728.389 556.909 728.49 556.374 728.402 555.855C728.313 555.336 728.041 554.872 727.642 554.559C719.528 546.158 709 540.992 699.162 535.007C691.332 530.251 683.836 524.913 676.351 519.575C669.16 514.452 661.908 509.276 655.873 502.687C652.83 499.354 650.092 495.677 646.796 492.636C643.883 490.103 640.798 487.803 637.566 485.755C623.108 475.938 609.308 465.067 596.265 453.219C586.346 444.204 578.221 432.589 567.622 424.501C561.121 419.54 553.555 415.021 545.603 415.927C535.927 417.006 528.786 425.633 522.041 433.074C499.373 458.104 470.771 476.017 445.475 498.028C424.825 515.973 405.523 537.293 380.37 546.762C381.495 550.73 381.891 554.699 383.027 558.625C384.443 564.081 386.208 569.428 388.311 574.628C390.397 579.234 392.744 583.699 395.34 588.001L405.422 605.504C407.45 609.063 409.57 612.675 412.471 615.501C413.992 617.054 416.883 617.614 416.883 619.868Z" fill="#052555"/>
<path d="M694.547 599.324C695.679 601.024 696.447 602.967 696.798 605.017C697.148 607.066 697.072 609.172 696.575 611.187C700.18 613.957 704.569 615.331 709.01 615.08C713.433 614.82 717.782 613.763 721.871 611.953C725.414 610.574 728.77 608.703 731.851 606.388C737.156 602.225 740.98 596.272 744.073 590.093C745.787 586.696 747.248 582.285 745.037 579.223C744.193 578.178 743.157 577.327 741.994 576.721C734.195 571.984 726.075 567.871 717.703 564.416C715.398 563.289 712.896 562.69 710.359 562.658C707.235 562.841 704.406 564.664 701.931 566.691C696.372 571.291 691.891 577.197 688.837 583.946C687.883 586.103 685.003 591.236 686.423 593.458C687.072 594.482 689.465 594.838 690.48 595.474C692.074 596.441 693.459 597.753 694.547 599.324V599.324Z" fill="#A1616A"/>
<path d="M740.99 573.809C758.151 577.206 773.933 586.016 790.8 590.772C797.626 592.692 804.655 594.008 811.177 596.833C817.698 599.659 823.845 604.49 826.654 611.37C827.841 614.673 828.628 618.123 828.997 621.637C829.728 626.608 830.326 632.162 827.547 636.239C824.616 640.552 819.078 641.512 814.118 642.138C796.287 644.402 778.457 646.656 760.565 648.252C756.95 648.492 753.35 648.949 749.784 649.622C746.842 650.258 743.972 651.197 741.051 651.93C737.278 652.879 733.424 653.461 729.59 654.087C719.782 655.575 709.862 657.085 700.014 655.931C695.521 655.402 690.49 653.86 688.512 649.547C687.691 647.311 687.345 644.91 687.498 642.515C687.498 636.12 687.396 629.714 687.498 623.319C687.589 616.752 687.893 609.936 690.693 604.08C691.389 602.289 692.697 600.844 694.354 600.036C695.375 599.725 696.442 599.623 697.498 599.734C702.773 599.928 708.229 600.165 712.946 602.667C716.688 604.641 719.386 598.742 723.2 600.511C730.431 603.908 725.533 593.609 732.835 596.812C734.539 591.225 741.781 594.547 740.523 588.82C739.266 583.094 743.779 585.585 743.262 579.697C743.24 578.413 743.006 577.143 742.572 575.944C742.004 574.79 742.187 573.625 740.99 573.809Z" fill="#464353"/>
<path opacity="0.06" d="M226.922 228.766C222.987 231.204 218.108 230.751 213.524 230.643C209.515 230.555 205.505 230.775 201.525 231.301C200.092 231.407 198.691 231.802 197.397 232.465C195.712 233.621 194.38 235.274 193.563 237.221C191.94 240.536 190.847 244.115 190.328 247.811C189.76 251.963 189.821 256.503 187.386 259.793C184.07 264.268 178.897 263.578 174.201 264.462C170.114 265.296 166.197 266.888 162.628 269.164C159.109 271.423 156.09 274.463 153.776 278.075C151.462 281.687 149.908 285.788 149.22 290.096C149.088 291.078 148.997 292.048 148.956 293.03C148.855 295.812 149.118 298.648 148.773 301.377C148.69 302.058 148.561 302.732 148.388 303.393C148.343 303.588 148.285 303.779 148.216 303.965C148.063 302.703 147.891 301.463 147.688 300.223C144.596 296.885 141.917 293.141 139.716 289.083C139.123 288.383 138.646 287.58 138.306 286.71C135.02 278.579 132.779 270.35 132.779 261.443C132.778 249.761 136.252 238.378 142.703 228.922C149.154 219.466 158.253 212.422 168.697 208.796C179.141 205.171 190.396 205.15 200.852 208.737C211.308 212.324 220.43 219.334 226.912 228.766H226.922Z" fill="black"/>
<path d="M230.259 207.543C227.652 201.126 222.145 196.575 216.485 193.006C205.329 185.931 192.488 181.488 179.465 181.305C172.894 181.307 166.341 182.03 159.91 183.462C153.643 184.653 147.503 186.506 141.582 188.994C131.813 193.314 123.177 200.095 116.419 208.751C114.999 208.865 113.591 209.107 112.209 209.473C106.692 210.94 101.722 214.165 97.1882 217.82C93.3941 220.743 90.0246 224.242 87.1876 228.206C83.8672 233.268 81.5706 239.007 80.4427 245.062C76.5784 263.999 81.3353 283.54 84.8243 302.552C88.3134 321.565 90.3521 342.336 81.7816 359.418C78.5461 365.888 73.9515 371.388 70.503 377.686C67.0545 383.984 64.7623 391.566 66.7198 398.554C69.0526 407.052 76.903 412.444 81.0006 420.09C83.5101 425.092 84.4058 430.831 83.5501 436.426C82.6944 442.022 80.1346 447.164 76.264 451.062C82.7045 453.435 89.8754 450.879 95.6769 447.083C100.277 444.235 104.19 440.288 107.108 435.555C114.4 423.002 111.165 406.793 113.7 392.288C117.078 373.308 130.709 356.377 128.833 337.159C127.565 324.218 119.532 313.488 113.213 302.391C108.999 294.99 105.456 287.179 102.635 279.064C100.606 273.273 98.9631 267.051 99.9672 260.968C100.299 259.111 100.834 257.302 101.56 255.576C101.56 255.781 101.56 255.986 101.56 256.191C101.675 261.777 102.855 267.28 105.028 272.367C112.574 288.759 132.667 294.799 141.177 310.641C143.662 307.761 146.248 304.742 147.262 300.989C148.155 297.646 147.698 294.087 147.83 290.614C148.185 280.908 153.733 271.763 161.502 266.759C165.068 264.479 168.987 262.891 173.075 262.068C177.761 261.173 182.934 261.853 186.261 257.377C188.695 254.142 188.634 249.548 189.212 245.407C189.726 241.706 190.82 238.122 192.448 234.806C193.261 232.859 194.594 231.209 196.281 230.061C197.577 229.392 198.982 228.996 200.42 228.896C204.396 228.37 208.402 228.15 212.408 228.238C217.043 228.357 222.003 228.799 225.979 226.265C231.578 222.641 232.866 214.014 230.259 207.543Z" fill="#464353"/>
<path opacity="0.06" d="M797.038 148.014C797.038 148.165 797.038 148.305 797.038 148.456C795.202 165.28 779.988 164.503 776.438 191.011C775.039 201.396 760.21 203.316 750.463 206.109C746.254 204.599 741.994 203.294 737.785 201.666C728.048 197.923 734.854 192.305 739.022 186.266C752.664 166.487 755.25 139.462 770.738 121.291C776.418 132.765 785.403 142.005 796.379 147.658C796.592 147.809 796.815 147.917 797.038 148.014Z" fill="black"/>
<path d="M797.393 138.362C797.391 140.913 797.256 143.462 796.987 145.997C795.119 163.507 786.903 179.552 774.085 190.723C761.266 201.893 744.856 207.308 728.342 205.818C711.828 204.327 696.512 196.048 685.648 182.739C674.784 169.431 669.229 152.143 670.164 134.549C671.099 116.955 678.45 100.442 690.654 88.5197C702.859 76.5972 718.955 70.205 735.522 70.7015C752.089 71.198 767.82 78.5441 779.374 91.1786C790.927 103.813 797.392 120.74 797.393 138.362V138.362Z" fill="#A1616A"/>
<path d="M823.003 145.933C830.295 145.555 837.304 148.596 844.039 151.583C870.744 163.446 897.673 175.406 921.538 192.822C933.304 201.45 944.207 211.242 955.09 221.066L999.809 261.464C1008.4 269.218 1017.05 277.048 1023.95 286.538C1028.01 292.391 1031.71 298.514 1035.03 304.871L1041.67 316.895C1044.38 321.602 1046.76 326.523 1048.77 331.616C1052.18 340.901 1053.44 351.728 1060.32 358.512C1064.93 363.074 1071.29 364.928 1076.93 367.937C1082.57 370.946 1088.09 376.23 1088 382.938C1088 387.252 1085.54 391.134 1083.7 395.017C1079.87 403.129 1078.27 412.221 1079.07 421.255L1005.95 361.833C1003.03 359.472 999.991 357.034 996.411 356.236C991.766 355.158 987.029 357.024 982.546 358.706C947.205 371.958 909.648 377.207 872.286 374.117C855.764 372.736 838.988 369.576 824.524 360.981C816.522 356.236 809.442 349.949 802.413 343.727C793.64 335.919 784.836 328.089 777.057 319.16C775.028 316.777 772.919 314.156 772.402 310.964C772.016 308.656 772.493 306.305 772.675 303.976C773.953 287.616 761.174 273.996 757.279 258.11C755.548 250.62 755.788 242.768 757.972 235.413C760.157 228.058 764.201 221.483 769.663 216.408C778.376 224.517 778.061 238.763 777.047 251.025C775.678 267.536 780.019 275.721 778.649 292.243C784.167 292.027 783.163 295.801 785.516 290.485C787.869 285.168 788.325 279.172 788.772 273.316C790.401 252.136 792.379 230.992 794.705 209.883C795.861 199.325 797.18 188.789 798.448 178.242C799.219 171.825 799.117 165.829 802.302 160.135C806.724 152.252 814.24 146.375 823.003 145.933Z" fill="#06BC65"/>
<path d="M832.547 165.172C837.193 163.619 842.193 165.042 846.858 166.52C855.108 169.122 863.31 171.872 871.464 174.77C878.128 177.131 884.883 179.666 890.522 184.12C896.375 188.735 900.665 195.152 904.915 201.461C907.957 206.001 911 210.595 913.029 215.75C915.666 222.501 916.376 229.899 917.086 237.167C917.551 240.304 917.514 243.502 916.974 246.625C916.022 250.016 914.345 253.128 912.075 255.716C908.584 260.111 904.535 263.969 900.046 267.18C888.108 275.721 873.675 279.28 859.618 282.418C847.071 285.211 834.434 287.81 821.634 288.651C816.654 288.986 810.872 288.651 807.83 284.467C806.964 283.163 806.28 281.731 805.801 280.218C798.322 259.157 795.085 236.661 796.298 214.186C796.408 210.089 797.004 206.024 798.073 202.086C799.126 198.935 800.432 195.886 801.977 192.973C805.821 185.241 809.868 177.239 816.491 172.063C823.419 166.671 832.395 164.967 840.986 165.312" fill="#A1616A"/>
<path opacity="0.06" d="M879.274 245.148C875.288 248.006 873.899 253.527 873.391 258.617C871.231 280.261 879.629 301.69 879.071 323.442C878.625 340.696 872.56 357.261 866.576 373.362C856.372 400.829 851.057 430.659 848.998 460.11C846.939 489.562 843.927 520.233 829.058 545.144C825.681 550.784 821.745 556.026 818.439 561.698C814.97 567.63 812.221 573.992 809.158 580.161C800.133 598.379 788.5 614.995 774.673 629.413C770.616 633.618 766.316 637.695 761.143 640.121C757.81 641.659 754.221 642.472 750.587 642.513C746.953 642.554 743.349 641.821 739.986 640.359C733.048 637.307 727.206 630.426 726.922 622.446C726.669 615.307 730.675 608.869 734.691 603.153C748.305 583.789 763.958 566.146 781.347 550.569C784.502 547.743 787.828 544.821 789.461 540.787C791.297 536.139 790.547 530.866 790.78 525.83C791.155 517.795 794.097 510.171 795.851 502.342C802.951 470.539 790.334 435.813 800.598 405.003C802.88 398.155 806.268 391.609 807.069 384.394C807.637 379.347 806.45 373.707 803.489 369.922C800.707 366.519 799.147 362.179 799.087 357.671C799.087 356.743 799.087 355.827 799.198 354.921C800.436 340.804 801.663 326.623 800.994 312.463C800.324 298.303 797.677 284.068 791.53 271.483C788.346 264.958 784.228 258.855 782.26 251.812C779.096 240.413 782.017 228.087 786.733 217.303C790.415 208.87 795.324 200.835 802.18 195.055C814.919 184.325 833.987 183.084 847.933 191.96C858.218 198.495 865.257 209.484 870.967 220.689C875.065 228.874 879.386 235.809 879.274 245.148Z" fill="black"/>
<path d="M881.587 245.148C877.601 248.006 876.211 253.527 875.704 258.617C873.544 280.261 881.942 301.69 881.384 323.442C880.938 340.696 874.872 357.261 868.888 373.362C858.685 400.829 853.38 430.659 851.311 460.11C849.242 489.562 846.24 520.233 831.371 545.144C827.993 550.784 824.068 556.026 820.751 561.698C817.293 567.63 814.534 573.992 811.471 580.161C802.443 598.377 790.81 614.992 776.986 629.413C772.929 633.618 768.618 637.695 763.446 640.121C760.112 641.659 756.523 642.472 752.889 642.513C749.256 642.554 745.651 641.821 742.288 640.359C735.361 637.307 729.519 630.426 729.235 622.446C728.971 615.307 732.977 608.869 737.004 603.153C750.617 583.788 766.271 566.145 783.66 550.569C786.814 547.743 790.151 544.821 791.774 540.787C793.62 536.139 792.859 530.866 793.092 525.83C793.468 517.795 796.409 510.171 798.164 502.342C805.264 470.539 792.646 435.813 802.911 405.003C805.193 398.155 808.59 391.609 809.392 384.394C809.949 379.347 808.773 373.707 805.811 369.922C802.978 366.542 801.373 362.197 801.288 357.671C801.288 356.743 801.288 355.827 801.399 354.921C802.627 340.804 803.854 326.623 803.184 312.463C802.515 298.303 799.868 284.068 793.721 271.483C790.537 264.958 786.419 258.855 784.451 251.812C781.287 240.413 784.208 228.087 788.924 217.303C792.616 208.87 797.515 200.835 804.371 195.055C817.11 184.325 836.178 183.084 850.124 191.96C860.409 198.495 867.448 209.484 873.158 220.689C877.357 228.874 881.658 235.809 881.587 245.148Z" fill="#A1616A"/>
<path d="M984.159 526.757L983.287 527.037Z" fill="#464353"/>
<path d="M806.511 574.876C806.549 574.513 806.609 574.152 806.693 573.798Z" fill="#464353"/>
<path d="M1023.97 500.875C1026.89 497.284 1031.39 495.677 1035.72 494.48C1042.7 492.561 1049.83 491.327 1057.02 490.791C1061.49 490.281 1066 490.576 1070.37 491.665C1074.69 492.927 1078.79 495.666 1080.98 499.818C1082.92 503.485 1083.22 507.841 1083.48 512.036C1084 520.664 1084.49 529.291 1083.15 537.789C1082.29 543.181 1080.68 548.401 1079.63 553.75C1076.24 571.285 1079.18 589.435 1078.88 607.337C1078.81 611.155 1078.58 615.069 1077.07 618.531C1075.45 622.208 1072.55 625.001 1069.72 627.762C1066.61 630.75 1063.44 633.758 1059.69 635.753C1054.13 638.719 1047.73 639.215 1041.52 639.42C1037.73 639.539 1033.84 639.549 1030.36 638.072C1026.88 636.595 1023.75 633.273 1023.49 629.25C1023.09 622.424 1030.33 617.959 1032.4 611.489C1034.04 606.334 1032.15 600.64 1029.54 595.949C1025.34 588.471 1019.35 582.311 1012.18 578.101C1009.53 576.548 1006.7 575.243 1004.48 573.054C1002.27 570.865 1000.77 567.468 1001.72 564.426C1002.84 560.749 1006.87 559.034 1010.49 558.668C1014.11 558.301 1017.93 558.581 1021.19 556.867C1024.09 555.346 1026.11 552.413 1027.5 549.318C1030.46 542.711 1030.87 535.137 1028.64 528.213C1027.76 525.579 1026.49 523.113 1024.87 520.912C1023.35 518.841 1020.23 517.094 1019.14 514.83C1017.21 510.753 1021.38 504.11 1023.97 500.875Z" fill="#464353"/>
<path opacity="0.06" d="M965.03 344.589C948.274 328.844 924.916 324.563 903.008 319.786C891.722 317.334 880.491 314.602 869.314 311.59C861.971 309.605 854.607 307.492 847 306.942C839.393 306.392 831.563 307.524 825.052 311.643C818.54 315.763 813.631 323.226 813.591 331.282C813.591 334.517 814.311 337.687 814.088 340.89C813.733 346.045 811.045 350.596 809.209 355.417C806.401 363.037 805.971 371.415 807.982 379.315C811.227 391.9 820.579 402.986 819.767 415.981C818.418 437.733 818.834 460.466 823.033 481.765C827.232 503.064 832.476 524.46 832.354 546.255C832.233 568.05 826.025 590.967 810.72 605.482C821.09 615.834 833.773 623.202 847.568 626.889C859.364 630.027 873.391 629.714 881.79 620.364C883.737 618.208 885.35 615.328 884.944 612.363C884.525 610.491 883.786 608.718 882.763 607.132C876.992 596.143 877.692 582.598 880.248 570.325C882.804 558.053 887.175 546.126 888.281 533.594C889.092 524.503 888.179 515.261 889.812 506.289C891.07 499.419 893.788 492.948 895.421 486.165C900.239 466.042 895.178 444.915 890.147 424.867C894.356 435.166 902.318 443.201 910.554 450.189C923.05 460.779 938.162 470.129 954.045 468.252C968.184 466.57 980.223 456.12 988.53 443.858C988.601 429.677 993.226 416.272 992.405 402.123C991.875 395.908 990.829 389.755 989.281 383.736C987.729 377.007 986.137 370.213 983.195 364.033C979.311 355.827 971.501 350.661 965.03 344.589Z" fill="black"/>
<path d="M968.499 344.589C951.743 328.844 928.395 324.563 906.477 319.786C895.191 317.334 883.963 314.602 872.793 311.59C865.45 309.605 858.076 307.492 850.479 306.942C842.882 306.392 835.052 307.524 828.541 311.643C822.029 315.763 817.11 323.226 817.08 331.282C817.08 334.517 817.79 337.687 817.567 340.89C817.222 346.045 814.473 350.596 812.688 355.417C809.884 363.038 809.457 371.416 811.471 379.315C814.706 391.9 824.058 402.986 823.257 415.981C821.897 437.733 822.313 460.466 826.512 481.765C830.711 503.064 835.955 524.46 835.833 546.255C835.712 568.05 829.464 590.891 814.148 605.385C824.52 615.735 837.202 623.103 850.997 626.792C862.792 629.93 876.83 629.617 885.218 620.267C887.165 618.111 888.778 615.231 888.372 612.265C887.954 610.394 887.214 608.621 886.191 607.035C880.42 596.046 881.12 582.501 883.676 570.228C886.232 557.956 890.603 546.029 891.719 533.497C892.52 524.406 891.608 515.164 893.251 506.191C894.498 499.322 897.227 492.851 898.849 486.068C903.667 465.945 898.616 444.818 893.575 424.77C897.784 435.069 905.746 443.104 913.992 450.092C926.488 460.682 941.59 470.032 957.474 468.155C971.612 466.473 983.652 456.023 991.958 443.761C992.019 429.58 996.644 416.175 995.823 402.026C995.293 395.811 994.247 389.658 992.699 383.639C991.157 376.91 989.555 370.116 986.613 363.936C982.84 355.827 974.97 350.661 968.499 344.589Z" fill="#A1616A"/>
<path d="M852.102 616.73C844.661 611.911 838.235 605.512 833.227 597.933C831.421 595.215 829.798 592.325 827.547 590.017C825.295 587.709 822.242 585.995 819.128 586.34C815.609 586.728 812.789 589.575 810.558 592.508C804.574 600.392 800.72 610.033 794.076 617.312C786.408 625.735 775.708 630.253 765.028 633.143C754.348 636.034 743.323 637.554 732.856 641.21C729.569 642.353 726.111 643.906 724.336 647.066C722.084 651.088 723.321 656.362 725.695 660.352C730.066 667.901 737.592 672.765 745.442 675.655C753.293 678.545 761.6 679.699 769.785 681.403C784.248 684.412 799.066 689.232 813.459 685.835C819.199 684.476 824.616 681.845 830.417 680.702C843.603 678.092 857.204 683.366 870.44 681.252C876.84 680.227 882.885 677.51 888.697 674.447C891.611 673.108 894.261 671.194 896.506 668.807C898.626 666.305 899.904 662.757 899.032 659.522C898.535 657.656 897.389 656.081 896.628 654.324C895.431 651.606 895.188 648.554 894.904 645.567C893.809 634.196 891.952 622.923 889.346 611.834C888.443 607.962 887.094 603.648 883.696 601.955C883.004 601.558 882.193 601.461 881.434 601.686C880.228 602.171 879.832 603.724 879.467 605.029C878.471 608.637 876.565 611.885 873.955 614.422C871.345 616.959 868.131 618.687 864.662 619.418C861.194 620.149 857.603 619.856 854.28 618.571C850.957 617.285 848.029 615.055 845.814 612.125" fill="#464353"/>
<path opacity="0.06" d="M797.393 138.362C797.392 140.913 797.256 143.462 796.987 145.997C793.791 146.506 790.527 146.206 787.46 145.121C784.394 144.036 781.611 142.197 779.339 139.753C777.199 137.338 775.597 134.415 773.477 131.978C771.357 129.54 768.405 127.513 765.363 127.772C762.766 127.977 760.514 129.724 758.739 131.751C756.43 134.391 754.738 137.572 753.8 141.037C753.12 143.485 752.786 146.267 750.879 147.895C748.972 149.524 746.629 149.416 744.367 149.33C741.436 149.222 738.393 149.071 735.807 147.604C730.939 144.811 729.295 138.416 727.49 132.851C724.447 123.501 717.601 105.815 706.961 103.928C701.89 103.033 695.723 105.88 691.748 108.953C685.753 113.58 681.331 116.578 673.582 116.448C678.468 101.289 688.252 88.4636 701.195 80.2533C714.137 72.043 729.399 68.98 744.266 71.6092C759.133 74.2384 772.641 82.3893 782.388 94.6121C792.134 106.835 797.487 122.337 797.494 138.362H797.393Z" fill="black"/>
<path d="M673.491 113.979C671.663 114.021 669.842 113.714 668.115 113.073C663.196 111.024 660.803 104.985 660.387 99.3877C659.738 90.8574 662.415 82.4888 665.103 74.4114C665.671 72.6536 666.35 70.7663 667.831 69.7849C669.03 69.1591 670.34 68.81 671.675 68.7604C678.958 67.682 685.277 62.9477 690.652 57.6419C696.028 52.336 700.876 46.3184 706.88 41.8968C722.804 30.2175 746.436 32.3959 760.21 46.8037C765.667 52.4978 770.353 60.2193 777.919 61.5566C782.28 62.3222 786.956 60.7262 791.105 62.4517C794.147 63.7134 796.318 66.5712 798.062 69.4938C803.722 78.9408 806.379 90.1348 807.262 101.297C808.144 112.458 807.333 123.685 806.511 134.846C806.557 136.518 806.153 138.168 805.345 139.602C804.696 140.43 803.882 141.093 802.961 141.543C799.105 143.565 794.748 144.244 790.508 143.485C786.268 142.727 782.361 140.568 779.339 137.316C777.189 134.911 775.596 131.989 773.477 129.541C771.357 127.093 768.405 125.087 765.363 125.345C762.776 125.55 760.504 127.297 758.739 129.325C756.43 131.964 754.738 135.145 753.8 138.61C753.131 141.058 752.786 143.84 750.879 145.458C748.972 147.076 746.629 146.989 744.357 146.903C741.436 146.785 738.393 146.644 735.807 145.167C730.928 142.385 729.285 135.99 727.49 130.425C724.447 121.075 717.611 103.378 706.961 101.501C701.89 100.596 695.723 103.453 691.748 106.527C685.662 111.121 681.28 114.119 673.491 113.979Z" fill="#464353"/>
<path opacity="0.06" d="M337.608 516.685C336.909 521.602 332.669 525.441 329.677 529.259C321.542 539.698 313.297 550.17 304.199 559.725C294.462 569.937 283.771 579.039 273.091 588.141L259.236 599.928C257.527 601.59 255.524 602.873 253.344 603.703C250.789 604.38 248.09 604.039 245.757 602.743C245.96 602.312 246.173 601.913 246.406 601.514L263.02 571.911C266.286 566.109 268.426 560.824 272.148 555.378C277.757 547.226 283.416 539.029 290.324 532.117C299.056 523.371 310.254 517.019 320.64 510.699C322.141 505.911 328.429 504.585 332.679 506.849C334.254 507.717 335.672 508.875 336.868 510.268C337.629 512.304 337.884 514.514 337.608 516.685V516.685Z" fill="black"/>
<path d="M264.176 572.168L247.562 601.782C246.883 602.979 246.183 604.337 246.477 605.696C246.85 606.837 247.562 607.817 248.506 608.489C254.875 614 261.934 619.813 263.933 628.279C265.363 634.318 263.932 640.788 265.21 646.849C267.553 657.784 277.889 664.427 287.666 668.633C309.574 678.059 333.896 681.682 357.173 677.261C380.451 672.839 402.541 660.243 417.613 640.875C422.238 634.922 426.194 628.408 430.586 622.261C442.757 605.276 458.204 591.332 473.529 577.528C493.257 559.755 504.88 533.248 522.214 512.822C525.368 509.102 528.847 505.273 533.371 504.044C535.906 503.364 539.456 504.367 539.558 507.15C539.791 512.542 543.868 516.953 546.658 521.46C557.165 538.543 568.16 556.153 584.398 567.045C593.283 573.02 603.355 576.676 613.396 579.987C638.854 588.42 664.809 595.085 690.733 601.684C692.042 598.903 693.612 596.269 695.419 593.823C698.107 590.318 701.647 587.643 704.345 584.117C709.284 577.765 711.018 569.364 712.601 561.297C697.113 551.214 681.219 540.807 665.945 530.325C658.257 525.062 650.518 519.681 644.29 512.563C640.233 507.883 636.825 502.523 632.758 497.811C628.598 493.237 624.115 489.009 619.35 485.161L582.836 454.07C572.349 445.151 561.658 435.736 551.394 426.505C545.623 421.307 539.223 415.839 531.677 415.591C525.216 415.376 519.273 419.053 513.714 422.59C481.069 443.375 447.936 463.225 414.317 482.141C407.511 485.959 400.675 489.755 394.184 494.144C381.554 502.687 370.34 513.393 360.997 525.828C359.283 528.104 357.113 530.692 354.394 530.347C353.647 530.23 352.928 529.963 352.275 529.559C348.086 527.176 345.52 522.571 343.146 518.204C340.773 513.836 338.126 509.242 333.876 506.977C329.626 504.712 323.348 506.039 321.837 510.838C311.4 517.341 300.243 523.639 291.5 532.385C284.593 539.298 278.933 547.483 273.325 555.646C269.582 561.093 267.432 566.377 264.176 572.168Z" fill="#052555"/>
<path opacity="0.06" d="M236.963 392.515C236.963 392.515 253.668 400.398 265.647 409.295Z" fill="black"/>
<path d="M1073.59 408.723C1073.89 418.785 1074.13 428.868 1074.02 438.919C1073.96 444.247 1073.75 449.801 1071.34 454.47C1069.63 457.824 1066.92 460.445 1064.24 463.011L1047.54 479.112C1042.36 484.105 1036.77 489.314 1029.86 490.554C1021.96 491.978 1014.24 487.891 1006.64 485.162C998.995 482.422 990.984 480.991 982.911 480.924C978.286 480.924 973.621 481.312 969.056 480.536C965.756 479.868 962.518 478.89 959.38 477.613L944.298 472.049C944.724 468.004 948.355 465.427 951.398 462.871C962.2 453.554 966.937 438.574 970.345 424.242C973.115 413.053 975.088 401.657 976.248 390.153C976.765 384.459 976.998 378.668 975.872 373.071C974.81 368.556 973.315 364.169 971.41 359.979L966.105 347.264C963.062 340.082 956.977 336.889 950.78 332.651C960.131 336.426 971.531 337.903 978.641 345.387C980.013 347.046 981.638 348.446 983.449 349.529C985.386 350.51 987.587 350.607 989.707 350.974C1000.27 352.656 1009.24 359.709 1017.96 366.233C1028.64 374.228 1039.62 381.738 1050.89 388.762C1055.96 391.932 1061.19 395.049 1065.46 399.373C1069.73 403.698 1073.08 409.457 1073.35 415.722" fill="#052555"/>
<path d="M168.269 374.651C154.972 377.444 148.055 394.063 148.836 408.438C149.584 421.282 154.544 433.44 162.853 442.797C168.401 448.998 175.318 453.786 180.329 460.483C187.733 470.361 190.309 483.421 196.932 493.914C201.74 501.538 208.484 507.513 215.189 513.239C230.646 526.353 246.607 538.762 263.072 550.467C269.766 555.233 277.089 560.043 285.142 559.86C292.729 559.687 299.717 554.953 304.667 548.827C309.616 542.702 312.781 535.261 315.996 527.928C327.579 501.075 339.243 473.931 344.781 444.975C346.515 435.895 347.682 426.512 351.556 418.209C354.599 411.738 359.102 406.195 363.119 400.339C372.609 386.474 379.27 370.653 382.673 353.891C384.885 342.945 385.625 331.244 381.994 320.773C378.363 310.301 369.549 301.253 359.051 300.434C350.745 299.776 342.59 304.316 337.011 310.905C331.433 317.494 328.147 325.917 325.905 334.447C322.692 346.719 321.457 359.481 322.254 372.192C322.903 382.448 324.871 392.801 323.207 402.927C322.031 410.088 319.1 416.763 316.199 423.342C308.703 440.316 301.086 457.506 289.757 471.871C286.065 476.551 280.984 481.275 275.334 480.186C267.525 478.665 265.455 468.161 261.601 460.774C256.875 451.704 247.909 446.258 240.88 439.076C230.879 428.831 224.885 415.092 217.775 402.41C210.665 389.727 201.466 377.218 188.362 372.354C175.257 367.49 157.792 373.734 154.424 388.056" fill="#A1616A"/>
<g opacity="0.06">
<path opacity="0.06" d="M113.213 302.444C108.999 295.044 105.456 287.233 102.635 279.118L102.29 278.04C100.149 275.597 98.3495 272.84 96.9447 269.854C94.7702 264.768 93.5901 259.264 93.4759 253.678C93.4759 253.473 93.4759 253.268 93.4759 253.063C92.7502 254.789 92.2158 256.599 91.8835 258.455C90.8693 264.538 92.5428 270.75 94.551 276.551C97.3747 284.666 100.917 292.476 105.13 299.878C111.428 311.072 119.471 321.856 120.719 334.7C122.595 353.918 108.964 370.838 105.596 389.829C103.02 404.334 106.286 420.543 98.9935 433.096C96.0786 437.829 92.1644 441.773 87.5628 444.613C84.6766 446.569 81.5167 448.025 78.2012 448.927C77.5965 449.69 76.946 450.41 76.2538 451.084C82.6943 453.456 89.8652 450.901 95.6667 447.105C100.267 444.257 104.18 440.31 107.097 435.576C114.39 423.023 111.154 406.815 113.69 392.31C117.068 373.329 130.699 356.398 128.823 337.181C127.565 324.261 119.532 313.488 113.213 302.444Z" fill="black"/>
<path opacity="0.06" d="M230.259 207.543C227.652 201.126 222.145 196.575 216.485 193.006C209.311 188.428 201.504 185.08 193.35 183.084C198.583 185.026 203.619 187.523 208.381 190.536C214.041 194.117 219.538 198.657 222.165 205.084C224.792 211.512 223.484 220.182 217.845 223.763C213.869 226.297 208.909 225.844 204.274 225.736C200.268 225.639 196.261 225.855 192.285 226.383C190.85 226.493 189.446 226.888 188.147 227.548C186.455 228.714 185.121 230.382 184.313 232.347C182.682 235.663 181.585 239.246 181.067 242.948C180.499 247.089 180.55 251.629 178.116 254.918C174.809 259.394 169.637 258.714 164.931 259.599C160.844 260.433 156.926 262.024 153.358 264.301C145.589 269.294 140.041 278.417 139.686 288.155C139.564 291.628 140.01 295.176 139.128 298.519C138.559 300.469 137.665 302.296 136.491 303.911C138.288 305.954 139.86 308.208 141.177 310.63C143.662 307.75 146.248 304.731 147.262 300.978C148.155 297.635 147.698 294.076 147.83 290.603C148.185 280.898 153.733 271.753 161.502 266.749C165.068 264.468 168.987 262.88 173.075 262.057C177.761 261.162 182.934 261.842 186.26 257.366C188.695 254.131 188.634 249.537 189.212 245.396C189.726 241.695 190.82 238.112 192.447 234.795C193.261 232.848 194.594 231.198 196.281 230.05C197.577 229.381 198.982 228.986 200.42 228.885C204.396 228.359 208.402 228.139 212.408 228.227C217.043 228.346 222.003 228.788 225.979 226.254C231.578 222.641 232.866 214.014 230.259 207.543Z" fill="black"/>
</g>
<path opacity="0.06" d="M346.412 0C346.412 0 358.391 10.9568 381.14 4.3137C381.14 4.29214 367.052 10.1911 346.412 0Z" fill="black"/>
<path opacity="0.06" d="M806.288 125.744C806.311 127.41 805.889 129.048 805.071 130.468C804.422 131.292 803.607 131.952 802.687 132.398C798.834 134.422 794.479 135.103 790.241 134.346C786.002 133.589 782.096 131.433 779.075 128.182C776.925 125.766 775.333 122.79 773.213 120.406C771.093 118.023 768.142 115.942 765.099 116.2C762.513 116.416 760.251 118.163 758.476 120.18C756.177 122.828 754.487 126.006 753.536 129.465C752.877 131.924 752.522 134.695 750.625 136.324C748.729 137.952 746.376 137.844 744.104 137.758C741.173 137.65 738.13 137.51 735.554 136.033C730.675 133.25 729.032 126.844 727.226 121.291C724.184 111.93 717.348 94.2436 706.708 92.3564C701.637 91.4613 695.46 94.3191 691.494 97.3818C685.5 102.008 681.078 105.006 673.319 104.931C671.49 104.968 669.671 104.661 667.943 104.025C663.48 102.159 661.097 97.0044 660.377 91.8926C660.101 94.2355 660.043 96.6015 660.204 98.9563C660.63 104.543 663.024 110.582 667.943 112.642C669.671 113.278 671.49 113.585 673.319 113.547C681.078 113.677 685.49 110.679 691.494 106.052C695.48 102.99 701.637 100.121 706.708 101.027C717.307 102.86 724.204 120.546 727.186 129.896C728.991 135.461 730.634 141.867 735.513 144.649C738.089 146.116 741.132 146.267 744.063 146.375C746.335 146.461 748.83 146.472 750.585 144.94C752.34 143.409 752.837 140.53 753.496 138.082C754.444 134.622 756.135 131.443 758.435 128.796C760.21 126.78 762.492 125.033 765.058 124.817C768.182 124.558 771.144 126.575 773.172 129.023C775.201 131.471 776.885 134.415 779.035 136.798C782.055 140.049 785.962 142.206 790.2 142.963C794.438 143.72 798.793 143.038 802.647 141.015C803.565 140.565 804.378 139.906 805.03 139.085C805.85 137.661 806.272 136.019 806.247 134.35C807.041 125.267 807.38 116.145 807.262 107.023C807.181 113.267 806.744 119.511 806.288 125.744Z" fill="black"/>
<path d="M102.209 585.801C102.209 585.801 103.821 583.892 100.789 583.137V579.999H102.614C102.61 576.207 101.382 572.532 99.1357 569.587C96.8889 566.643 93.7596 564.608 90.2709 563.822V560.016H90.7476V555.066H79.0126V560.016H79.3473V563.866C75.8913 564.689 72.8025 566.741 70.59 569.681C68.3775 572.622 67.1734 576.276 67.1762 580.042H68.7888V583.051C68.7888 583.051 64.9448 584.981 68.7888 588.443C72.6329 591.905 72.0345 594.407 72.0345 594.407C72.0345 594.407 70.4218 600.877 67.1863 601.718V661.711C67.185 663.463 67.5083 665.197 68.1377 666.815C68.7671 668.434 69.6903 669.905 70.8545 671.143C72.0187 672.382 73.4012 673.365 74.9228 674.036C76.4444 674.706 78.0754 675.051 79.7226 675.051H89.6319C92.9594 675.051 96.1506 673.646 98.5035 671.144C100.856 668.642 102.178 665.249 102.178 661.711V601.718C102.178 601.718 96.5086 597.2 97.5228 594.407C98.8835 591.419 100.45 588.543 102.209 585.801Z" fill="#06BC65"/>
</g>
<defs>
<filter id="filter0_d" x="-4" y="0" width="1160.12" height="779.1" filterUnits="userSpaceOnUse" color-interpolation-filters="sRGB">
<feFlood flood-opacity="0" result="BackgroundImageFix"/>
<feColorMatrix in="SourceAlpha" type="matrix" values="0 0 0 0 0 0 0 0 0 0 0 0 0 0 0 0 0 0 127 0"/>
<feOffset dy="4"/>
<feGaussianBlur stdDeviation="2"/>
<feColorMatrix type="matrix" values="0 0 0 0 0 0 0 0 0 0 0 0 0 0 0 0 0 0 0.25 0"/>
<feBlend mode="normal" in2="BackgroundImageFix" result="effect1_dropShadow"/>
<feBlend mode="normal" in="SourceGraphic" in2="effect1_dropShadow" result="shape"/>
</filter>
<linearGradient id="paint0_linear" x1="574.043" y1="685.631" x2="574.043" y2="26.8204" gradientUnits="userSpaceOnUse">
<stop stop-color="#808080" stop-opacity="0.25"/>
<stop offset="0.54" stop-color="#808080" stop-opacity="0.12"/>
<stop offset="1" stop-color="#808080" stop-opacity="0.1"/>
</linearGradient>
</defs>
</svg>
